<?xml version="1.0"?> <!DOCTYPE svg PUBLIC "-//W3C//DTD SVG 1.1//EN" "http://www.w3.org/Graphics/SVG/1.1/DTD/svg11.dtd">
<svg xmlns="http://www.w3.org/2000/svg" version="1.1" width="55.880000" height="55.880000" >
<circle cx="0.000000" cy="0.000000" r="21.975762" stroke="black" stroke-width="1" fill="none" />
<path d="M 22.373945,-0.333495     C  22.474814, -0.328604  22.575757, -0.318374  22.676742, -0.304622  22.777753, -0.287987  22.878779, -0.268835  22.979813, -0.247407  23.080844, -0.223880  23.181867, -0.198390  23.282873, -0.171042  23.383856, -0.141926  23.484810, -0.111113  23.585727, -0.078666  23.686602, -0.044639  23.787428, -0.009079  23.888199, 0.027974  23.988909, 0.066482  24.089552, 0.106414  24.190121, 0.147739  24.290611, 0.190432  24.391017, 0.234467  24.491331, 0.279822  24.591548, 0.326478  24.691662, 0.374414  24.791667, 0.423615  24.891558, 0.474063  24.991328, 0.525744  25.090972, 0.578643  25.190483, 0.632747  25.289856, 0.688044  25.389086, 0.744523  " fill="none" stroke="#000000" stroke-width="1" />
<path d="M 22.216519,2.670382     C  22.317346, 2.676062  22.418805, 2.676439  22.520674, 2.673318  22.622871, 2.667333  22.725346, 2.658846  22.828066, 2.648096  22.931003, 2.635259  23.034137, 2.620468  23.137448, 2.603828  23.240922, 2.585427  23.344543, 2.565335  23.448299, 2.543615  23.552178, 2.520319  23.656169, 2.495492  23.760261, 2.469176  23.864444, 2.441406  23.968710, 2.412213  24.073048, 2.381626  24.177450, 2.349672  24.281909, 2.316373  24.386414, 2.281752  24.490959, 2.245827  24.595535, 2.208618  24.700136, 2.170141  24.804752, 2.130410  24.909378, 2.089442  25.014005, 2.047248  25.118627, 2.003842  25.223236, 1.959235  25.327826, 1.913438  " fill="none" stroke="#000000" stroke-width="1" />
<path d="M25.389086,0.744523 A 25.400000 25.400000  0 0 1 25.327826 1.913438" fill="none" stroke="#000000" stroke-width="1" />
<path d="M 21.954358,4.325598     C  22.052006, 4.351353  22.148616, 4.382347  22.244535, 4.416794  22.339880, 4.454067  22.434717, 4.493806  22.529087, 4.535771  22.623020, 4.579789  22.716535, 4.625727  22.809648, 4.673477  22.902371, 4.722953  22.994712, 4.774082  23.086678, 4.826801  23.178274, 4.881058  23.269503, 4.936804  23.360368, 4.993998  23.450871, 5.052604  23.541012, 5.112588  23.630792, 5.173920  23.720210, 5.236572  23.809266, 5.300521  23.897958, 5.365741  23.986285, 5.432214  24.074245, 5.499918  24.161835, 5.568835  24.249054, 5.638949  24.335899, 5.710244  24.422367, 5.782704  24.508455, 5.856316  24.594160, 5.931066  24.679478, 6.006941  " fill="none" stroke="#000000" stroke-width="1" />
<path d="M 21.175831,7.231101     C  21.273274, 7.257621  21.372438, 7.279084  21.472729, 7.297211  21.573937, 7.312605  21.675938, 7.325609  21.778648, 7.336451  21.882005, 7.345296  21.985960, 7.352271  22.090473, 7.357474  22.195512, 7.360988  22.301046, 7.362880  22.407050, 7.363206  22.513503, 7.362017  22.620383, 7.359354  22.727672, 7.355255  22.835352, 7.349752  22.943409, 7.342875  23.051826, 7.334650  23.160591, 7.325100  23.269689, 7.314247  23.379109, 7.302111  23.488839, 7.288707  23.598866, 7.274054  23.709181, 7.258165  23.819772, 7.241054  23.930629, 7.222733  24.041743, 7.203215  24.153103, 7.182509  24.264700, 7.160626  24.376526, 7.137576  " fill="none" stroke="#000000" stroke-width="1" />
<path d="M24.679478,6.006941 A 25.400000 25.400000  0 0 1 24.376526 7.137576" fill="none" stroke="#000000" stroke-width="1" />
<path d="M 20.575260,8.795641     C  20.665420, 8.841135  20.753475, 8.891538  20.840135, 8.945176  20.925648, 9.001457  21.010150, 9.060045  21.093733, 9.120714  21.176461, 9.183300  21.258382, 9.247677  21.339532, 9.313743  21.419942, 9.381416  21.499635, 9.450626  21.578630, 9.521314  21.656944, 9.593429  21.734589, 9.666925  21.811578, 9.741761  21.887918, 9.817903  21.963618, 9.895317  22.038684, 9.973975  22.113122, 10.053850  22.186936, 10.134916  22.260130, 10.217152  22.332706, 10.300536  22.404667, 10.385048  22.476015, 10.470671  22.546751, 10.557387  22.616875, 10.645180  22.686388, 10.734034  22.755290, 10.823936  22.823581, 10.914871  22.891259, 11.006827  " fill="none" stroke="#000000" stroke-width="1" />
<path d="M 19.209658,11.475787     C  19.299458, 11.521987  19.391992, 11.563599  19.486323, 11.602181  19.582119, 11.638281  19.679187, 11.672207  19.777398, 11.704167  19.876657, 11.734308  19.976891, 11.762744  20.078038, 11.789564  20.180051, 11.814839  20.282886, 11.838631  20.386506, 11.860990  20.490879, 11.881960  20.595977, 11.901577  20.701774, 11.919873  20.808246, 11.936879  20.915371, 11.952618  21.023129, 11.967114  21.131502, 11.980387  21.240473, 11.992454  21.350026, 12.003332  21.460144, 12.013036  21.570814, 12.021579  21.682021, 12.028972  21.793753, 12.035228  21.905997, 12.040357  22.018740, 12.044367  22.131972, 12.047267  22.245680, 12.049064  22.359855, 12.049767  " fill="none" stroke="#000000" stroke-width="1" />
<path d="M22.891259,11.006827 A 25.400000 25.400000  0 0 1 22.359855 12.049767" fill="none" stroke="#000000" stroke-width="1" />
<path d="M 18.296925,12.881272     C  18.375655, 12.944518  18.451307, 13.012127  18.524922, 13.082610  18.596864, 13.155440  18.667338, 13.230317  18.736481, 13.307038  18.804389, 13.385457  18.871135, 13.465459  18.936776, 13.546953  19.001359, 13.629866  19.064921, 13.714133  19.127493, 13.799700  19.189102, 13.886521  19.249770, 13.974554  19.309516, 14.063762  19.368357, 14.154112  19.426308, 14.245574  19.483380, 14.338120  19.539584, 14.431726  19.594931, 14.526367  19.649427, 14.622024  19.703081, 14.718675  19.755899, 14.816302  19.807886, 14.914888  19.859046, 15.014416  19.909385, 15.114870  19.958905, 15.216235  20.007610, 15.318498  20.055501, 15.421644  20.102582, 15.525662  " fill="none" stroke="#000000" stroke-width="1" />
<path d="M 16.403930,15.218926     C  16.482162, 15.282787  16.564023, 15.342728  16.648271, 15.400080  16.734468, 15.455308  16.822361, 15.508675  16.911781, 15.560355  17.002605, 15.610475  17.094736, 15.659129  17.188097, 15.706392  17.282625, 15.752325  17.378266, 15.796978  17.474973, 15.840392  17.572706, 15.882604  17.671429, 15.923643  17.771110, 15.963536  17.871719, 16.002307  17.973231, 16.039975  18.075620, 16.076559  18.178866, 16.112073  18.282947, 16.146533  18.387843, 16.179950  18.493538, 16.212337  18.600013, 16.243703  18.707253, 16.274056  18.815242, 16.303406  18.923967, 16.331759  19.033413, 16.359122  19.143568, 16.385501  19.254418, 16.410900  19.365951, 16.435326  " fill="none" stroke="#000000" stroke-width="1" />
<path d="M20.102582,15.525662 A 25.400000 25.400000  0 0 1 19.365951 16.435326" fill="none" stroke="#000000" stroke-width="1" />
<path d="M 15.218926,16.403930     C  15.282787, 16.482162  15.342728, 16.564023  15.400080, 16.648271  15.455308, 16.734468  15.508675, 16.822361  15.560355, 16.911781  15.610475, 17.002605  15.659129, 17.094736  15.706392, 17.188097  15.752325, 17.282625  15.796978, 17.378266  15.840392, 17.474973  15.882604, 17.572706  15.923643, 17.671429  15.963536, 17.771110  16.002307, 17.871719  16.039975, 17.973231  16.076559, 18.075620  16.112073, 18.178866  16.146533, 18.282947  16.179950, 18.387843  16.212337, 18.493538  16.243703, 18.600013  16.274056, 18.707253  16.303406, 18.815242  16.331759, 18.923967  16.359122, 19.033413  16.385501, 19.143568  16.410900, 19.254418  16.435326, 19.365951  " fill="none" stroke="#000000" stroke-width="1" />
<path d="M 12.881272,18.296925     C  12.944518, 18.375655  13.012127, 18.451307  13.082610, 18.524922  13.155440, 18.596864  13.230317, 18.667338  13.307038, 18.736481  13.385457, 18.804389  13.465459, 18.871135  13.546953, 18.936776  13.629866, 19.001359  13.714133, 19.064921  13.799700, 19.127493  13.886521, 19.189102  13.974554, 19.249770  14.063762, 19.309516  14.154112, 19.368357  14.245574, 19.426308  14.338120, 19.483380  14.431726, 19.539584  14.526367, 19.594931  14.622024, 19.649427  14.718675, 19.703081  14.816302, 19.755899  14.914888, 19.807886  15.014416, 19.859046  15.114870, 19.909385  15.216235, 19.958905  15.318498, 20.007610  15.421644, 20.055501  15.525662, 20.102582  " fill="none" stroke="#000000" stroke-width="1" />
<path d="M16.435326,19.365951 A 25.400000 25.400000  0 0 1 15.525662 20.102582" fill="none" stroke="#000000" stroke-width="1" />
<path d="M 11.475787,19.209658     C  11.521987, 19.299458  11.563599, 19.391992  11.602181, 19.486323  11.638281, 19.582119  11.672207, 19.679187  11.704167, 19.777398  11.734308, 19.876657  11.762744, 19.976891  11.789564, 20.078038  11.814839, 20.180051  11.838631, 20.282886  11.860990, 20.386506  11.881960, 20.490879  11.901577, 20.595977  11.919873, 20.701774  11.936879, 20.808246  11.952618, 20.915371  11.967114, 21.023129  11.980387, 21.131502  11.992454, 21.240473  12.003332, 21.350026  12.013036, 21.460144  12.021579, 21.570814  12.028972, 21.682021  12.035228, 21.793753  12.040357, 21.905997  12.044367, 22.018740  12.047267, 22.131972  12.049064, 22.245680  12.049767, 22.359855  " fill="none" stroke="#000000" stroke-width="1" />
<path d="M 8.795641,20.575260     C  8.841135, 20.665420  8.891538, 20.753475  8.945176, 20.840135  9.001457, 20.925648  9.060045, 21.010150  9.120714, 21.093733  9.183300, 21.176461  9.247677, 21.258382  9.313743, 21.339532  9.381416, 21.419942  9.450626, 21.499635  9.521314, 21.578630  9.593429, 21.656944  9.666925, 21.734589  9.741761, 21.811578  9.817903, 21.887918  9.895317, 21.963618  9.973975, 22.038684  10.053850, 22.113122  10.134916, 22.186936  10.217152, 22.260130  10.300536, 22.332706  10.385048, 22.404667  10.470671, 22.476015  10.557387, 22.546751  10.645180, 22.616875  10.734034, 22.686388  10.823936, 22.755290  10.914871, 22.823581  11.006827, 22.891259  " fill="none" stroke="#000000" stroke-width="1" />
<path d="M12.049767,22.359855 A 25.400000 25.400000  0 0 1 11.006827 22.891259" fill="none" stroke="#000000" stroke-width="1" />
<path d="M 7.231101,21.175831     C  7.257621, 21.273274  7.279084, 21.372438  7.297211, 21.472729  7.312605, 21.573937  7.325609, 21.675938  7.336451, 21.778648  7.345296, 21.882005  7.352271, 21.985960  7.357474, 22.090473  7.360988, 22.195512  7.362880, 22.301046  7.363206, 22.407050  7.362017, 22.513503  7.359354, 22.620383  7.355255, 22.727672  7.349752, 22.835352  7.342875, 22.943409  7.334650, 23.051826  7.325100, 23.160591  7.314247, 23.269689  7.302111, 23.379109  7.288707, 23.488839  7.274054, 23.598866  7.258165, 23.709181  7.241054, 23.819772  7.222733, 23.930629  7.203215, 24.041743  7.182509, 24.153103  7.160626, 24.264700  7.137576, 24.376526  " fill="none" stroke="#000000" stroke-width="1" />
<path d="M 4.325598,21.954358     C  4.351353, 22.052006  4.382347, 22.148616  4.416794, 22.244535  4.454067, 22.339880  4.493806, 22.434717  4.535771, 22.529087  4.579789, 22.623020  4.625727, 22.716535  4.673477, 22.809648  4.722953, 22.902371  4.774082, 22.994712  4.826801, 23.086678  4.881058, 23.178274  4.936804, 23.269503  4.993998, 23.360368  5.052604, 23.450871  5.112588, 23.541012  5.173920, 23.630792  5.236572, 23.720210  5.300521, 23.809266  5.365741, 23.897958  5.432214, 23.986285  5.499918, 24.074245  5.568835, 24.161835  5.638949, 24.249054  5.710244, 24.335899  5.782704, 24.422367  5.856316, 24.508455  5.931066, 24.594160  6.006941, 24.679478  " fill="none" stroke="#000000" stroke-width="1" />
<path d="M7.137576,24.376526 A 25.400000 25.400000  0 0 1 6.006941 24.679478" fill="none" stroke="#000000" stroke-width="1" />
<path d="M 2.670382,22.216519     C  2.676062, 22.317346  2.676439, 22.418805  2.673318, 22.520674  2.667333, 22.622871  2.658846, 22.725346  2.648096, 22.828066  2.635259, 22.931003  2.620468, 23.034137  2.603828, 23.137448  2.585427, 23.240922  2.565335, 23.344543  2.543615, 23.448299  2.520319, 23.552178  2.495492, 23.656169  2.469176, 23.760261  2.441406, 23.864444  2.412213, 23.968710  2.381626, 24.073048  2.349672, 24.177450  2.316373, 24.281909  2.281752, 24.386414  2.245827, 24.490959  2.208618, 24.595535  2.170141, 24.700136  2.130410, 24.804752  2.089442, 24.909378  2.047248, 25.014005  2.003842, 25.118627  1.959235, 25.223236  1.913438, 25.327826  " fill="none" stroke="#000000" stroke-width="1" />
<path d="M -0.333495,22.373945     C  -0.328604, 22.474814  -0.318374, 22.575757  -0.304622, 22.676742  -0.287987, 22.777753  -0.268835, 22.878779  -0.247407, 22.979813  -0.223880, 23.080844  -0.198390, 23.181867  -0.171042, 23.282873  -0.141926, 23.383856  -0.111113, 23.484810  -0.078666, 23.585727  -0.044639, 23.686602  -0.009079, 23.787428  0.027974, 23.888199  0.066482, 23.988909  0.106414, 24.089552  0.147739, 24.190121  0.190432, 24.290611  0.234467, 24.391017  0.279822, 24.491331  0.326478, 24.591548  0.374414, 24.691662  0.423615, 24.791667  0.474063, 24.891558  0.525744, 24.991328  0.578643, 25.090972  0.632747, 25.190483  0.688044, 25.289856  0.744523, 25.389086  " fill="none" stroke="#000000" stroke-width="1" />
<path d="M1.913438,25.327826 A 25.400000 25.400000  0 0 1 0.744523 25.389086" fill="none" stroke="#000000" stroke-width="1" />
<path d="M -2.007046,22.286238     C  -2.022453, 22.386043  -2.043179, 22.485364  -2.067412, 22.584358  -2.094514, 22.683077  -2.124122, 22.781548  -2.155993, 22.879788  -2.189951, 22.977807  -2.225862, 23.075612  -2.263618, 23.173206  -2.303131, 23.270592  -2.344327, 23.367772  -2.387145, 23.464745  -2.431529, 23.561510  -2.477434, 23.658067  -2.524817, 23.754413  -2.573642, 23.850546  -2.623875, 23.946463  -2.675486, 24.042162  -2.728449, 24.137639  -2.782738, 24.232892  -2.838331, 24.327915  -2.895206, 24.422706  -2.953345, 24.517261  -3.012729, 24.611576  -3.073342, 24.705646  -3.135169, 24.799468  -3.198194, 24.893036  -3.262403, 24.986347  -3.327785, 25.079396  -3.394327, 25.172178  " fill="none" stroke="#000000" stroke-width="1" />
<path d="M -4.978012,21.815683     C  -4.994200, 21.915365  -5.005181, 22.016229  -5.012725, 22.117866  -5.017455, 22.220128  -5.019726, 22.322929  -5.019772, 22.426210  -5.017765, 22.529925  -5.013836, 22.634040  -5.008086, 22.738525  -5.000601, 22.843355  -4.991451, 22.948509  -4.980696, 23.053967  -4.968385, 23.159712  -4.954565, 23.265728  -4.939273, 23.372001  -4.922545, 23.478516  -4.904411, 23.585262  -4.884898, 23.692226  -4.864032, 23.799396  -4.841834, 23.906763  -4.818327, 24.014315  -4.793527, 24.122042  -4.767453, 24.229935  -4.740120, 24.337984  -4.711542, 24.446181  -4.681734, 24.554516  -4.650708, 24.662980  -4.618476, 24.771566  -4.585048, 24.880265  -4.550434, 24.989069  " fill="none" stroke="#000000" stroke-width="1" />
<path d="M-3.394327,25.172178 A 25.400000 25.400000  0 0 1 -4.550434 24.989069" fill="none" stroke="#000000" stroke-width="1" />
<path d="M -6.596757,21.381942     C  -6.632578, 21.476363  -6.673501, 21.569204  -6.717786, 21.660996  -6.764820, 21.751923  -6.814255, 21.842087  -6.865855, 21.931554  -6.919450, 22.020370  -6.974911, 22.108571  -7.032133, 22.196183  -7.091030, 22.283226  -7.151531, 22.369717  -7.213575, 22.455669  -7.277108, 22.541091  -7.342085, 22.625994  -7.408464, 22.710383  -7.476209, 22.794264  -7.545287, 22.877641  -7.615667, 22.960518  -7.687323, 23.042898  -7.760230, 23.124781  -7.834364, 23.206170  -7.909705, 23.287065  -7.986232, 23.367466  -8.063928, 23.447372  -8.142775, 23.526785  -8.222757, 23.605702  -8.303859, 23.684122  -8.386066, 23.762044  -8.469365, 23.839465  -8.553742, 23.916385  " fill="none" stroke="#000000" stroke-width="1" />
<path d="M -9.404966,20.303972     C  -9.441525, 20.398109  -9.473237, 20.494486  -9.501748, 20.592333  -9.527636, 20.691377  -9.551231, 20.791460  -9.572749, 20.892474  -9.592350, 20.994340  -9.610153, 21.096997  -9.626253, 21.200394  -9.640727, 21.304489  -9.653639, 21.409248  -9.665045, 21.514637  -9.674989, 21.620631  -9.683513, 21.727204  -9.690650, 21.834334  -9.696434, 21.942000  -9.700889, 22.050183  -9.704042, 22.158866  -9.705914, 22.268033  -9.706524, 22.377669  -9.705891, 22.487758  -9.704031, 22.598287  -9.700959, 22.709244  -9.696688, 22.820615  -9.691231, 22.932388  -9.684598, 23.044553  -9.676801, 23.157098  -9.667849, 23.270013  -9.657751, 23.383286  -9.646516, 23.496909  " fill="none" stroke="#000000" stroke-width="1" />
<path d="M-8.553742,23.916385 A 25.400000 25.400000  0 0 1 -9.646516 23.496909" fill="none" stroke="#000000" stroke-width="1" />
<path d="M -10.898158,19.543152     C  -10.952827, 19.628062  -11.012158, 19.710366  -11.074560, 19.790945  -11.139472, 19.870106  -11.206572, 19.948022  -11.275646, 20.024805  -11.346536, 20.100538  -11.419123, 20.175280  -11.493310, 20.249081  -11.569017, 20.321976  -11.646178, 20.393998  -11.724737, 20.465172  -11.804642, 20.535519  -11.885851, 20.605056  -11.968326, 20.673800  -12.052030, 20.741763  -12.136933, 20.808957  -12.223007, 20.875390  -12.310224, 20.941071  -12.398562, 21.006007  -12.487999, 21.070203  -12.578512, 21.133666  -12.670083, 21.196399  -12.762695, 21.258406  -12.856330, 21.319690  -12.950971, 21.380253  -13.046605, 21.440098  -13.143217, 21.499225  -13.240792, 21.557636  -13.339319, 21.615332  " fill="none" stroke="#000000" stroke-width="1" />
<path d="M -13.420878,17.904879     C  -13.476211, 17.989358  -13.527267, 18.077035  -13.575499, 18.166817  -13.621414, 18.258314  -13.665301, 18.351304  -13.707351, 18.445637  -13.747703, 18.541202  -13.786460, 18.637914  -13.823706, 18.735704  -13.859506, 18.834515  -13.893917, 18.934300  -13.926985, 19.035015  -13.958749, 19.136625  -13.989244, 19.239097  -14.018500, 19.342401  -14.046541, 19.446512  -14.073392, 19.551405  -14.099073, 19.657058  -14.123601, 19.763450  -14.146992, 19.870563  -14.169262, 19.978378  -14.190423, 20.086879  -14.210487, 20.196049  -14.229465, 20.305875  -14.247366, 20.416341  -14.264199, 20.527433  -14.279971, 20.639140  -14.294691, 20.751448  -14.308365, 20.864346  -14.320999, 20.977822  " fill="none" stroke="#000000" stroke-width="1" />
<path d="M-13.339319,21.615332 A 25.400000 25.400000  0 0 1 -14.320999 20.977822" fill="none" stroke="#000000" stroke-width="1" />
<path d="M -14.723257,16.850233     C  -14.794385, 16.921921  -14.869532, 16.990091  -14.947323, 17.055935  -15.027275, 17.119870  -15.109108, 17.182132  -15.192637, 17.242876  -15.277724, 17.302215  -15.364264, 17.360233  -15.452174, 17.416996  -15.541383, 17.472559  -15.631832, 17.526964  -15.723472, 17.580249  -15.816257, 17.632445  -15.910149, 17.683579  -16.005114, 17.733673  -16.101119, 17.782748  -16.198137, 17.830821  -16.296142, 17.877906  -16.395110, 17.924018  -16.495019, 17.969169  -16.595847, 18.013368  -16.697577, 18.056625  -16.800191, 18.098949  -16.903671, 18.140346  -17.008001, 18.180822  -17.113166, 18.220385  -17.219152, 18.259038  -17.325946, 18.296787  -17.433534, 18.333634  -17.541903, 18.369585  " fill="none" stroke="#000000" stroke-width="1" />
<path d="M -16.850233,14.723257     C  -16.921921, 14.794385  -16.990091, 14.869532  -17.055935, 14.947323  -17.119870, 15.027275  -17.182132, 15.109108  -17.242876, 15.192637  -17.302215, 15.277724  -17.360233, 15.364264  -17.416996, 15.452174  -17.472559, 15.541383  -17.526964, 15.631832  -17.580249, 15.723472  -17.632445, 15.816257  -17.683579, 15.910149  -17.733673, 16.005114  -17.782748, 16.101119  -17.830821, 16.198137  -17.877906, 16.296142  -17.924018, 16.395110  -17.969169, 16.495019  -18.013368, 16.595847  -18.056625, 16.697577  -18.098949, 16.800191  -18.140346, 16.903671  -18.180822, 17.008001  -18.220385, 17.113166  -18.259038, 17.219152  -18.296787, 17.325946  -18.333634, 17.433534  -18.369585, 17.541903  " fill="none" stroke="#000000" stroke-width="1" />
<path d="M-17.541903,18.369585 A 25.400000 25.400000  0 0 1 -18.369585 17.541903" fill="none" stroke="#000000" stroke-width="1" />
<path d="M -17.904879,13.420878     C  -17.989358, 13.476211  -18.077035, 13.527267  -18.166817, 13.575499  -18.258314, 13.621414  -18.351304, 13.665301  -18.445637, 13.707351  -18.541202, 13.747703  -18.637914, 13.786460  -18.735704, 13.823706  -18.834515, 13.859506  -18.934300, 13.893917  -19.035015, 13.926985  -19.136625, 13.958749  -19.239097, 13.989244  -19.342401, 14.018500  -19.446512, 14.046541  -19.551405, 14.073392  -19.657058, 14.099073  -19.763450, 14.123601  -19.870563, 14.146992  -19.978378, 14.169262  -20.086879, 14.190423  -20.196049, 14.210487  -20.305875, 14.229465  -20.416341, 14.247366  -20.527433, 14.264199  -20.639140, 14.279971  -20.751448, 14.294691  -20.864346, 14.308365  -20.977822, 14.320999  " fill="none" stroke="#000000" stroke-width="1" />
<path d="M -19.543152,10.898158     C  -19.628062, 10.952827  -19.710366, 11.012158  -19.790945, 11.074560  -19.870106, 11.139472  -19.948022, 11.206572  -20.024805, 11.275646  -20.100538, 11.346536  -20.175280, 11.419123  -20.249081, 11.493310  -20.321976, 11.569017  -20.393998, 11.646178  -20.465172, 11.724737  -20.535519, 11.804642  -20.605056, 11.885851  -20.673800, 11.968326  -20.741763, 12.052030  -20.808957, 12.136933  -20.875390, 12.223007  -20.941071, 12.310224  -21.006007, 12.398562  -21.070203, 12.487999  -21.133666, 12.578512  -21.196399, 12.670083  -21.258406, 12.762695  -21.319690, 12.856330  -21.380253, 12.950971  -21.440098, 13.046605  -21.499225, 13.143217  -21.557636, 13.240792  -21.615332, 13.339319  " fill="none" stroke="#000000" stroke-width="1" />
<path d="M-20.977822,14.320999 A 25.400000 25.400000  0 0 1 -21.615332 13.339319" fill="none" stroke="#000000" stroke-width="1" />
<path d="M -20.303972,9.404966     C  -20.398109, 9.441525  -20.494486, 9.473237  -20.592333, 9.501748  -20.691377, 9.527636  -20.791460, 9.551231  -20.892474, 9.572749  -20.994340, 9.592350  -21.096997, 9.610153  -21.200394, 9.626253  -21.304489, 9.640727  -21.409248, 9.653639  -21.514637, 9.665045  -21.620631, 9.674989  -21.727204, 9.683513  -21.834334, 9.690650  -21.942000, 9.696434  -22.050183, 9.700889  -22.158866, 9.704042  -22.268033, 9.705914  -22.377669, 9.706524  -22.487758, 9.705891  -22.598287, 9.704031  -22.709244, 9.700959  -22.820615, 9.696688  -22.932388, 9.691231  -23.044553, 9.684598  -23.157098, 9.676801  -23.270013, 9.667849  -23.383286, 9.657751  -23.496909, 9.646516  " fill="none" stroke="#000000" stroke-width="1" />
<path d="M -21.381942,6.596757     C  -21.476363, 6.632578  -21.569204, 6.673501  -21.660996, 6.717786  -21.751923, 6.764820  -21.842087, 6.814255  -21.931554, 6.865855  -22.020370, 6.919450  -22.108571, 6.974911  -22.196183, 7.032133  -22.283226, 7.091030  -22.369717, 7.151531  -22.455669, 7.213575  -22.541091, 7.277108  -22.625994, 7.342085  -22.710383, 7.408464  -22.794264, 7.476209  -22.877641, 7.545287  -22.960518, 7.615667  -23.042898, 7.687323  -23.124781, 7.760230  -23.206170, 7.834364  -23.287065, 7.909705  -23.367466, 7.986232  -23.447372, 8.063928  -23.526785, 8.142775  -23.605702, 8.222757  -23.684122, 8.303859  -23.762044, 8.386066  -23.839465, 8.469365  -23.916385, 8.553742  " fill="none" stroke="#000000" stroke-width="1" />
<path d="M-23.496909,9.646516 A 25.400000 25.400000  0 0 1 -23.916385 8.553742" fill="none" stroke="#000000" stroke-width="1" />
<path d="M -21.815683,4.978012     C  -21.915365, 4.994200  -22.016229, 5.005181  -22.117866, 5.012725  -22.220128, 5.017455  -22.322929, 5.019726  -22.426210, 5.019772  -22.529925, 5.017765  -22.634040, 5.013836  -22.738525, 5.008086  -22.843355, 5.000601  -22.948509, 4.991451  -23.053967, 4.980696  -23.159712, 4.968385  -23.265728, 4.954565  -23.372001, 4.939273  -23.478516, 4.922545  -23.585262, 4.904411  -23.692226, 4.884898  -23.799396, 4.864032  -23.906763, 4.841834  -24.014315, 4.818327  -24.122042, 4.793527  -24.229935, 4.767453  -24.337984, 4.740120  -24.446181, 4.711542  -24.554516, 4.681734  -24.662980, 4.650708  -24.771566, 4.618476  -24.880265, 4.585048  -24.989069, 4.550434  " fill="none" stroke="#000000" stroke-width="1" />
<path d="M -22.286238,2.007046     C  -22.386043, 2.022453  -22.485364, 2.043179  -22.584358, 2.067412  -22.683077, 2.094514  -22.781548, 2.124122  -22.879788, 2.155993  -22.977807, 2.189951  -23.075612, 2.225862  -23.173206, 2.263618  -23.270592, 2.303131  -23.367772, 2.344327  -23.464745, 2.387145  -23.561510, 2.431529  -23.658067, 2.477434  -23.754413, 2.524817  -23.850546, 2.573642  -23.946463, 2.623875  -24.042162, 2.675486  -24.137639, 2.728449  -24.232892, 2.782738  -24.327915, 2.838331  -24.422706, 2.895206  -24.517261, 2.953345  -24.611576, 3.012729  -24.705646, 3.073342  -24.799468, 3.135169  -24.893036, 3.198194  -24.986347, 3.262403  -25.079396, 3.327785  -25.172178, 3.394327  " fill="none" stroke="#000000" stroke-width="1" />
<path d="M-24.989069,4.550434 A 25.400000 25.400000  0 0 1 -25.172178 3.394327" fill="none" stroke="#000000" stroke-width="1" />
<path d="M -22.373945,0.333495     C  -22.474814, 0.328604  -22.575757, 0.318374  -22.676742, 0.304622  -22.777753, 0.287987  -22.878779, 0.268835  -22.979813, 0.247407  -23.080844, 0.223880  -23.181867, 0.198390  -23.282873, 0.171042  -23.383856, 0.141926  -23.484810, 0.111113  -23.585727, 0.078666  -23.686602, 0.044639  -23.787428, 0.009079  -23.888199, -0.027974  -23.988909, -0.066482  -24.089552, -0.106414  -24.190121, -0.147739  -24.290611, -0.190432  -24.391017, -0.234467  -24.491331, -0.279822  -24.591548, -0.326478  -24.691662, -0.374414  -24.791667, -0.423615  -24.891558, -0.474063  -24.991328, -0.525744  -25.090972, -0.578643  -25.190483, -0.632747  -25.289856, -0.688044  -25.389086, -0.744523  " fill="none" stroke="#000000" stroke-width="1" />
<path d="M -22.216519,-2.670382     C  -22.317346, -2.676062  -22.418805, -2.676439  -22.520674, -2.673318  -22.622871, -2.667333  -22.725346, -2.658846  -22.828066, -2.648096  -22.931003, -2.635259  -23.034137, -2.620468  -23.137448, -2.603828  -23.240922, -2.585427  -23.344543, -2.565335  -23.448299, -2.543615  -23.552178, -2.520319  -23.656169, -2.495492  -23.760261, -2.469176  -23.864444, -2.441406  -23.968710, -2.412213  -24.073048, -2.381626  -24.177450, -2.349672  -24.281909, -2.316373  -24.386414, -2.281752  -24.490959, -2.245827  -24.595535, -2.208618  -24.700136, -2.170141  -24.804752, -2.130410  -24.909378, -2.089442  -25.014005, -2.047248  -25.118627, -2.003842  -25.223236, -1.959235  -25.327826, -1.913438  " fill="none" stroke="#000000" stroke-width="1" />
<path d="M-25.389086,-0.744523 A 25.400000 25.400000  0 0 1 -25.327826 -1.913438" fill="none" stroke="#000000" stroke-width="1" />
<path d="M -21.954358,-4.325598     C  -22.052006, -4.351353  -22.148616, -4.382347  -22.244535, -4.416794  -22.339880, -4.454067  -22.434717, -4.493806  -22.529087, -4.535771  -22.623020, -4.579789  -22.716535, -4.625727  -22.809648, -4.673477  -22.902371, -4.722953  -22.994712, -4.774082  -23.086678, -4.826801  -23.178274, -4.881058  -23.269503, -4.936804  -23.360368, -4.993998  -23.450871, -5.052604  -23.541012, -5.112588  -23.630792, -5.173920  -23.720210, -5.236572  -23.809266, -5.300521  -23.897958, -5.365741  -23.986285, -5.432214  -24.074245, -5.499918  -24.161835, -5.568835  -24.249054, -5.638949  -24.335899, -5.710244  -24.422367, -5.782704  -24.508455, -5.856316  -24.594160, -5.931066  -24.679478, -6.006941  " fill="none" stroke="#000000" stroke-width="1" />
<path d="M -21.175831,-7.231101     C  -21.273274, -7.257621  -21.372438, -7.279084  -21.472729, -7.297211  -21.573937, -7.312605  -21.675938, -7.325609  -21.778648, -7.336451  -21.882005, -7.345296  -21.985960, -7.352271  -22.090473, -7.357474  -22.195512, -7.360988  -22.301046, -7.362880  -22.407050, -7.363206  -22.513503, -7.362017  -22.620383, -7.359354  -22.727672, -7.355255  -22.835352, -7.349752  -22.943409, -7.342875  -23.051826, -7.334650  -23.160591, -7.325100  -23.269689, -7.314247  -23.379109, -7.302111  -23.488839, -7.288707  -23.598866, -7.274054  -23.709181, -7.258165  -23.819772, -7.241054  -23.930629, -7.222733  -24.041743, -7.203215  -24.153103, -7.182509  -24.264700, -7.160626  -24.376526, -7.137576  " fill="none" stroke="#000000" stroke-width="1" />
<path d="M-24.679478,-6.006941 A 25.400000 25.400000  0 0 1 -24.376526 -7.137576" fill="none" stroke="#000000" stroke-width="1" />
<path d="M -20.575260,-8.795641     C  -20.665420, -8.841135  -20.753475, -8.891538  -20.840135, -8.945176  -20.925648, -9.001457  -21.010150, -9.060045  -21.093733, -9.120714  -21.176461, -9.183300  -21.258382, -9.247677  -21.339532, -9.313743  -21.419942, -9.381416  -21.499635, -9.450626  -21.578630, -9.521314  -21.656944, -9.593429  -21.734589, -9.666925  -21.811578, -9.741761  -21.887918, -9.817903  -21.963618, -9.895317  -22.038684, -9.973975  -22.113122, -10.053850  -22.186936, -10.134916  -22.260130, -10.217152  -22.332706, -10.300536  -22.404667, -10.385048  -22.476015, -10.470671  -22.546751, -10.557387  -22.616875, -10.645180  -22.686388, -10.734034  -22.755290, -10.823936  -22.823581, -10.914871  -22.891259, -11.006827  " fill="none" stroke="#000000" stroke-width="1" />
<path d="M -19.209658,-11.475787     C  -19.299458, -11.521987  -19.391992, -11.563599  -19.486323, -11.602181  -19.582119, -11.638281  -19.679187, -11.672207  -19.777398, -11.704167  -19.876657, -11.734308  -19.976891, -11.762744  -20.078038, -11.789564  -20.180051, -11.814839  -20.282886, -11.838631  -20.386506, -11.860990  -20.490879, -11.881960  -20.595977, -11.901577  -20.701774, -11.919873  -20.808246, -11.936879  -20.915371, -11.952618  -21.023129, -11.967114  -21.131502, -11.980387  -21.240473, -11.992454  -21.350026, -12.003332  -21.460144, -12.013036  -21.570814, -12.021579  -21.682021, -12.028972  -21.793753, -12.035228  -21.905997, -12.040357  -22.018740, -12.044367  -22.131972, -12.047267  -22.245680, -12.049064  -22.359855, -12.049767  " fill="none" stroke="#000000" stroke-width="1" />
<path d="M-22.891259,-11.006827 A 25.400000 25.400000  0 0 1 -22.359855 -12.049767" fill="none" stroke="#000000" stroke-width="1" />
<path d="M -18.296925,-12.881272     C  -18.375655, -12.944518  -18.451307, -13.012127  -18.524922, -13.082610  -18.596864, -13.155440  -18.667338, -13.230317  -18.736481, -13.307038  -18.804389, -13.385457  -18.871135, -13.465459  -18.936776, -13.546953  -19.001359, -13.629866  -19.064921, -13.714133  -19.127493, -13.799700  -19.189102, -13.886521  -19.249770, -13.974554  -19.309516, -14.063762  -19.368357, -14.154112  -19.426308, -14.245574  -19.483380, -14.338120  -19.539584, -14.431726  -19.594931, -14.526367  -19.649427, -14.622024  -19.703081, -14.718675  -19.755899, -14.816302  -19.807886, -14.914888  -19.859046, -15.014416  -19.909385, -15.114870  -19.958905, -15.216235  -20.007610, -15.318498  -20.055501, -15.421644  -20.102582, -15.525662  " fill="none" stroke="#000000" stroke-width="1" />
<path d="M -16.403930,-15.218926     C  -16.482162, -15.282787  -16.564023, -15.342728  -16.648271, -15.400080  -16.734468, -15.455308  -16.822361, -15.508675  -16.911781, -15.560355  -17.002605, -15.610475  -17.094736, -15.659129  -17.188097, -15.706392  -17.282625, -15.752325  -17.378266, -15.796978  -17.474973, -15.840392  -17.572706, -15.882604  -17.671429, -15.923643  -17.771110, -15.963536  -17.871719, -16.002307  -17.973231, -16.039975  -18.075620, -16.076559  -18.178866, -16.112073  -18.282947, -16.146533  -18.387843, -16.179950  -18.493538, -16.212337  -18.600013, -16.243703  -18.707253, -16.274056  -18.815242, -16.303406  -18.923967, -16.331759  -19.033413, -16.359122  -19.143568, -16.385501  -19.254418, -16.410900  -19.365951, -16.435326  " fill="none" stroke="#000000" stroke-width="1" />
<path d="M-20.102582,-15.525662 A 25.400000 25.400000  0 0 1 -19.365951 -16.435326" fill="none" stroke="#000000" stroke-width="1" />
<path d="M -15.218926,-16.403930     C  -15.282787, -16.482162  -15.342728, -16.564023  -15.400080, -16.648271  -15.455308, -16.734468  -15.508675, -16.822361  -15.560355, -16.911781  -15.610475, -17.002605  -15.659129, -17.094736  -15.706392, -17.188097  -15.752325, -17.282625  -15.796978, -17.378266  -15.840392, -17.474973  -15.882604, -17.572706  -15.923643, -17.671429  -15.963536, -17.771110  -16.002307, -17.871719  -16.039975, -17.973231  -16.076559, -18.075620  -16.112073, -18.178866  -16.146533, -18.282947  -16.179950, -18.387843  -16.212337, -18.493538  -16.243703, -18.600013  -16.274056, -18.707253  -16.303406, -18.815242  -16.331759, -18.923967  -16.359122, -19.033413  -16.385501, -19.143568  -16.410900, -19.254418  -16.435326, -19.365951  " fill="none" stroke="#000000" stroke-width="1" />
<path d="M -12.881272,-18.296925     C  -12.944518, -18.375655  -13.012127, -18.451307  -13.082610, -18.524922  -13.155440, -18.596864  -13.230317, -18.667338  -13.307038, -18.736481  -13.385457, -18.804389  -13.465459, -18.871135  -13.546953, -18.936776  -13.629866, -19.001359  -13.714133, -19.064921  -13.799700, -19.127493  -13.886521, -19.189102  -13.974554, -19.249770  -14.063762, -19.309516  -14.154112, -19.368357  -14.245574, -19.426308  -14.338120, -19.483380  -14.431726, -19.539584  -14.526367, -19.594931  -14.622024, -19.649427  -14.718675, -19.703081  -14.816302, -19.755899  -14.914888, -19.807886  -15.014416, -19.859046  -15.114870, -19.909385  -15.216235, -19.958905  -15.318498, -20.007610  -15.421644, -20.055501  -15.525662, -20.102582  " fill="none" stroke="#000000" stroke-width="1" />
<path d="M-16.435326,-19.365951 A 25.400000 25.400000  0 0 1 -15.525662 -20.102582" fill="none" stroke="#000000" stroke-width="1" />
<path d="M -11.475787,-19.209658     C  -11.521987, -19.299458  -11.563599, -19.391992  -11.602181, -19.486323  -11.638281, -19.582119  -11.672207, -19.679187  -11.704167, -19.777398  -11.734308, -19.876657  -11.762744, -19.976891  -11.789564, -20.078038  -11.814839, -20.180051  -11.838631, -20.282886  -11.860990, -20.386506  -11.881960, -20.490879  -11.901577, -20.595977  -11.919873, -20.701774  -11.936879, -20.808246  -11.952618, -20.915371  -11.967114, -21.023129  -11.980387, -21.131502  -11.992454, -21.240473  -12.003332, -21.350026  -12.013036, -21.460144  -12.021579, -21.570814  -12.028972, -21.682021  -12.035228, -21.793753  -12.040357, -21.905997  -12.044367, -22.018740  -12.047267, -22.131972  -12.049064, -22.245680  -12.049767, -22.359855  " fill="none" stroke="#000000" stroke-width="1" />
<path d="M -8.795641,-20.575260     C  -8.841135, -20.665420  -8.891538, -20.753475  -8.945176, -20.840135  -9.001457, -20.925648  -9.060045, -21.010150  -9.120714, -21.093733  -9.183300, -21.176461  -9.247677, -21.258382  -9.313743, -21.339532  -9.381416, -21.419942  -9.450626, -21.499635  -9.521314, -21.578630  -9.593429, -21.656944  -9.666925, -21.734589  -9.741761, -21.811578  -9.817903, -21.887918  -9.895317, -21.963618  -9.973975, -22.038684  -10.053850, -22.113122  -10.134916, -22.186936  -10.217152, -22.260130  -10.300536, -22.332706  -10.385048, -22.404667  -10.470671, -22.476015  -10.557387, -22.546751  -10.645180, -22.616875  -10.734034, -22.686388  -10.823936, -22.755290  -10.914871, -22.823581  -11.006827, -22.891259  " fill="none" stroke="#000000" stroke-width="1" />
<path d="M-12.049767,-22.359855 A 25.400000 25.400000  0 0 1 -11.006827 -22.891259" fill="none" stroke="#000000" stroke-width="1" />
<path d="M -7.231101,-21.175831     C  -7.257621, -21.273274  -7.279084, -21.372438  -7.297211, -21.472729  -7.312605, -21.573937  -7.325609, -21.675938  -7.336451, -21.778648  -7.345296, -21.882005  -7.352271, -21.985960  -7.357474, -22.090473  -7.360988, -22.195512  -7.362880, -22.301046  -7.363206, -22.407050  -7.362017, -22.513503  -7.359354, -22.620383  -7.355255, -22.727672  -7.349752, -22.835352  -7.342875, -22.943409  -7.334650, -23.051826  -7.325100, -23.160591  -7.314247, -23.269689  -7.302111, -23.379109  -7.288707, -23.488839  -7.274054, -23.598866  -7.258165, -23.709181  -7.241054, -23.819772  -7.222733, -23.930629  -7.203215, -24.041743  -7.182509, -24.153103  -7.160626, -24.264700  -7.137576, -24.376526  " fill="none" stroke="#000000" stroke-width="1" />
<path d="M -4.325598,-21.954358     C  -4.351353, -22.052006  -4.382347, -22.148616  -4.416794, -22.244535  -4.454067, -22.339880  -4.493806, -22.434717  -4.535771, -22.529087  -4.579789, -22.623020  -4.625727, -22.716535  -4.673477, -22.809648  -4.722953, -22.902371  -4.774082, -22.994712  -4.826801, -23.086678  -4.881058, -23.178274  -4.936804, -23.269503  -4.993998, -23.360368  -5.052604, -23.450871  -5.112588, -23.541012  -5.173920, -23.630792  -5.236572, -23.720210  -5.300521, -23.809266  -5.365741, -23.897958  -5.432214, -23.986285  -5.499918, -24.074245  -5.568835, -24.161835  -5.638949, -24.249054  -5.710244, -24.335899  -5.782704, -24.422367  -5.856316, -24.508455  -5.931066, -24.594160  -6.006941, -24.679478  " fill="none" stroke="#000000" stroke-width="1" />
<path d="M-7.137576,-24.376526 A 25.400000 25.400000  0 0 1 -6.006941 -24.679478" fill="none" stroke="#000000" stroke-width="1" />
<path d="M -2.670382,-22.216519     C  -2.676062, -22.317346  -2.676439, -22.418805  -2.673318, -22.520674  -2.667333, -22.622871  -2.658846, -22.725346  -2.648096, -22.828066  -2.635259, -22.931003  -2.620468, -23.034137  -2.603828, -23.137448  -2.585427, -23.240922  -2.565335, -23.344543  -2.543615, -23.448299  -2.520319, -23.552178  -2.495492, -23.656169  -2.469176, -23.760261  -2.441406, -23.864444  -2.412213, -23.968710  -2.381626, -24.073048  -2.349672, -24.177450  -2.316373, -24.281909  -2.281752, -24.386414  -2.245827, -24.490959  -2.208618, -24.595535  -2.170141, -24.700136  -2.130410, -24.804752  -2.089442, -24.909378  -2.047248, -25.014005  -2.003842, -25.118627  -1.959235, -25.223236  -1.913438, -25.327826  " fill="none" stroke="#000000" stroke-width="1" />
<path d="M 0.333495,-22.373945     C  0.328604, -22.474814  0.318374, -22.575757  0.304622, -22.676742  0.287987, -22.777753  0.268835, -22.878779  0.247407, -22.979813  0.223880, -23.080844  0.198390, -23.181867  0.171042, -23.282873  0.141926, -23.383856  0.111113, -23.484810  0.078666, -23.585727  0.044639, -23.686602  0.009079, -23.787428  -0.027974, -23.888199  -0.066482, -23.988909  -0.106414, -24.089552  -0.147739, -24.190121  -0.190432, -24.290611  -0.234467, -24.391017  -0.279822, -24.491331  -0.326478, -24.591548  -0.374414, -24.691662  -0.423615, -24.791667  -0.474063, -24.891558  -0.525744, -24.991328  -0.578643, -25.090972  -0.632747, -25.190483  -0.688044, -25.289856  -0.744523, -25.389086  " fill="none" stroke="#000000" stroke-width="1" />
<path d="M-1.913438,-25.327826 A 25.400000 25.400000  0 0 1 -0.744523 -25.389086" fill="none" stroke="#000000" stroke-width="1" />
<path d="M 2.007046,-22.286238     C  2.022453, -22.386043  2.043179, -22.485364  2.067412, -22.584358  2.094514, -22.683077  2.124122, -22.781548  2.155993, -22.879788  2.189951, -22.977807  2.225862, -23.075612  2.263618, -23.173206  2.303131, -23.270592  2.344327, -23.367772  2.387145, -23.464745  2.431529, -23.561510  2.477434, -23.658067  2.524817, -23.754413  2.573642, -23.850546  2.623875, -23.946463  2.675486, -24.042162  2.728449, -24.137639  2.782738, -24.232892  2.838331, -24.327915  2.895206, -24.422706  2.953345, -24.517261  3.012729, -24.611576  3.073342, -24.705646  3.135169, -24.799468  3.198194, -24.893036  3.262403, -24.986347  3.327785, -25.079396  3.394327, -25.172178  " fill="none" stroke="#000000" stroke-width="1" />
<path d="M 4.978012,-21.815683     C  4.994200, -21.915365  5.005181, -22.016229  5.012725, -22.117866  5.017455, -22.220128  5.019726, -22.322929  5.019772, -22.426210  5.017765, -22.529925  5.013836, -22.634040  5.008086, -22.738525  5.000601, -22.843355  4.991451, -22.948509  4.980696, -23.053967  4.968385, -23.159712  4.954565, -23.265728  4.939273, -23.372001  4.922545, -23.478516  4.904411, -23.585262  4.884898, -23.692226  4.864032, -23.799396  4.841834, -23.906763  4.818327, -24.014315  4.793527, -24.122042  4.767453, -24.229935  4.740120, -24.337984  4.711542, -24.446181  4.681734, -24.554516  4.650708, -24.662980  4.618476, -24.771566  4.585048, -24.880265  4.550434, -24.989069  " fill="none" stroke="#000000" stroke-width="1" />
<path d="M3.394327,-25.172178 A 25.400000 25.400000  0 0 1 4.550434 -24.989069" fill="none" stroke="#000000" stroke-width="1" />
<path d="M 6.596757,-21.381942     C  6.632578, -21.476363  6.673501, -21.569204  6.717786, -21.660996  6.764820, -21.751923  6.814255, -21.842087  6.865855, -21.931554  6.919450, -22.020370  6.974911, -22.108571  7.032133, -22.196183  7.091030, -22.283226  7.151531, -22.369717  7.213575, -22.455669  7.277108, -22.541091  7.342085, -22.625994  7.408464, -22.710383  7.476209, -22.794264  7.545287, -22.877641  7.615667, -22.960518  7.687323, -23.042898  7.760230, -23.124781  7.834364, -23.206170  7.909705, -23.287065  7.986232, -23.367466  8.063928, -23.447372  8.142775, -23.526785  8.222757, -23.605702  8.303859, -23.684122  8.386066, -23.762044  8.469365, -23.839465  8.553742, -23.916385  " fill="none" stroke="#000000" stroke-width="1" />
<path d="M 9.404966,-20.303972     C  9.441525, -20.398109  9.473237, -20.494486  9.501748, -20.592333  9.527636, -20.691377  9.551231, -20.791460  9.572749, -20.892474  9.592350, -20.994340  9.610153, -21.096997  9.626253, -21.200394  9.640727, -21.304489  9.653639, -21.409248  9.665045, -21.514637  9.674989, -21.620631  9.683513, -21.727204  9.690650, -21.834334  9.696434, -21.942000  9.700889, -22.050183  9.704042, -22.158866  9.705914, -22.268033  9.706524, -22.377669  9.705891, -22.487758  9.704031, -22.598287  9.700959, -22.709244  9.696688, -22.820615  9.691231, -22.932388  9.684598, -23.044553  9.676801, -23.157098  9.667849, -23.270013  9.657751, -23.383286  9.646516, -23.496909  " fill="none" stroke="#000000" stroke-width="1" />
<path d="M8.553742,-23.916385 A 25.400000 25.400000  0 0 1 9.646516 -23.496909" fill="none" stroke="#000000" stroke-width="1" />
<path d="M 10.898158,-19.543152     C  10.952827, -19.628062  11.012158, -19.710366  11.074560, -19.790945  11.139472, -19.870106  11.206572, -19.948022  11.275646, -20.024805  11.346536, -20.100538  11.419123, -20.175280  11.493310, -20.249081  11.569017, -20.321976  11.646178, -20.393998  11.724737, -20.465172  11.804642, -20.535519  11.885851, -20.605056  11.968326, -20.673800  12.052030, -20.741763  12.136933, -20.808957  12.223007, -20.875390  12.310224, -20.941071  12.398562, -21.006007  12.487999, -21.070203  12.578512, -21.133666  12.670083, -21.196399  12.762695, -21.258406  12.856330, -21.319690  12.950971, -21.380253  13.046605, -21.440098  13.143217, -21.499225  13.240792, -21.557636  13.339319, -21.615332  " fill="none" stroke="#000000" stroke-width="1" />
<path d="M 13.420878,-17.904879     C  13.476211, -17.989358  13.527267, -18.077035  13.575499, -18.166817  13.621414, -18.258314  13.665301, -18.351304  13.707351, -18.445637  13.747703, -18.541202  13.786460, -18.637914  13.823706, -18.735704  13.859506, -18.834515  13.893917, -18.934300  13.926985, -19.035015  13.958749, -19.136625  13.989244, -19.239097  14.018500, -19.342401  14.046541, -19.446512  14.073392, -19.551405  14.099073, -19.657058  14.123601, -19.763450  14.146992, -19.870563  14.169262, -19.978378  14.190423, -20.086879  14.210487, -20.196049  14.229465, -20.305875  14.247366, -20.416341  14.264199, -20.527433  14.279971, -20.639140  14.294691, -20.751448  14.308365, -20.864346  14.320999, -20.977822  " fill="none" stroke="#000000" stroke-width="1" />
<path d="M13.339319,-21.615332 A 25.400000 25.400000  0 0 1 14.320999 -20.977822" fill="none" stroke="#000000" stroke-width="1" />
<path d="M 14.723257,-16.850233     C  14.794385, -16.921921  14.869532, -16.990091  14.947323, -17.055935  15.027275, -17.119870  15.109108, -17.182132  15.192637, -17.242876  15.277724, -17.302215  15.364264, -17.360233  15.452174, -17.416996  15.541383, -17.472559  15.631832, -17.526964  15.723472, -17.580249  15.816257, -17.632445  15.910149, -17.683579  16.005114, -17.733673  16.101119, -17.782748  16.198137, -17.830821  16.296142, -17.877906  16.395110, -17.924018  16.495019, -17.969169  16.595847, -18.013368  16.697577, -18.056625  16.800191, -18.098949  16.903671, -18.140346  17.008001, -18.180822  17.113166, -18.220385  17.219152, -18.259038  17.325946, -18.296787  17.433534, -18.333634  17.541903, -18.369585  " fill="none" stroke="#000000" stroke-width="1" />
<path d="M 16.850233,-14.723257     C  16.921921, -14.794385  16.990091, -14.869532  17.055935, -14.947323  17.119870, -15.027275  17.182132, -15.109108  17.242876, -15.192637  17.302215, -15.277724  17.360233, -15.364264  17.416996, -15.452174  17.472559, -15.541383  17.526964, -15.631832  17.580249, -15.723472  17.632445, -15.816257  17.683579, -15.910149  17.733673, -16.005114  17.782748, -16.101119  17.830821, -16.198137  17.877906, -16.296142  17.924018, -16.395110  17.969169, -16.495019  18.013368, -16.595847  18.056625, -16.697577  18.098949, -16.800191  18.140346, -16.903671  18.180822, -17.008001  18.220385, -17.113166  18.259038, -17.219152  18.296787, -17.325946  18.333634, -17.433534  18.369585, -17.541903  " fill="none" stroke="#000000" stroke-width="1" />
<path d="M17.541903,-18.369585 A 25.400000 25.400000  0 0 1 18.369585 -17.541903" fill="none" stroke="#000000" stroke-width="1" />
<path d="M 17.904879,-13.420878     C  17.989358, -13.476211  18.077035, -13.527267  18.166817, -13.575499  18.258314, -13.621414  18.351304, -13.665301  18.445637, -13.707351  18.541202, -13.747703  18.637914, -13.786460  18.735704, -13.823706  18.834515, -13.859506  18.934300, -13.893917  19.035015, -13.926985  19.136625, -13.958749  19.239097, -13.989244  19.342401, -14.018500  19.446512, -14.046541  19.551405, -14.073392  19.657058, -14.099073  19.763450, -14.123601  19.870563, -14.146992  19.978378, -14.169262  20.086879, -14.190423  20.196049, -14.210487  20.305875, -14.229465  20.416341, -14.247366  20.527433, -14.264199  20.639140, -14.279971  20.751448, -14.294691  20.864346, -14.308365  20.977822, -14.320999  " fill="none" stroke="#000000" stroke-width="1" />
<path d="M 19.543152,-10.898158     C  19.628062, -10.952827  19.710366, -11.012158  19.790945, -11.074560  19.870106, -11.139472  19.948022, -11.206572  20.024805, -11.275646  20.100538, -11.346536  20.175280, -11.419123  20.249081, -11.493310  20.321976, -11.569017  20.393998, -11.646178  20.465172, -11.724737  20.535519, -11.804642  20.605056, -11.885851  20.673800, -11.968326  20.741763, -12.052030  20.808957, -12.136933  20.875390, -12.223007  20.941071, -12.310224  21.006007, -12.398562  21.070203, -12.487999  21.133666, -12.578512  21.196399, -12.670083  21.258406, -12.762695  21.319690, -12.856330  21.380253, -12.950971  21.440098, -13.046605  21.499225, -13.143217  21.557636, -13.240792  21.615332, -13.339319  " fill="none" stroke="#000000" stroke-width="1" />
<path d="M20.977822,-14.320999 A 25.400000 25.400000  0 0 1 21.615332 -13.339319" fill="none" stroke="#000000" stroke-width="1" />
<path d="M 20.303972,-9.404966     C  20.398109, -9.441525  20.494486, -9.473237  20.592333, -9.501748  20.691377, -9.527636  20.791460, -9.551231  20.892474, -9.572749  20.994340, -9.592350  21.096997, -9.610153  21.200394, -9.626253  21.304489, -9.640727  21.409248, -9.653639  21.514637, -9.665045  21.620631, -9.674989  21.727204, -9.683513  21.834334, -9.690650  21.942000, -9.696434  22.050183, -9.700889  22.158866, -9.704042  22.268033, -9.705914  22.377669, -9.706524  22.487758, -9.705891  22.598287, -9.704031  22.709244, -9.700959  22.820615, -9.696688  22.932388, -9.691231  23.044553, -9.684598  23.157098, -9.676801  23.270013, -9.667849  23.383286, -9.657751  23.496909, -9.646516  " fill="none" stroke="#000000" stroke-width="1" />
<path d="M 21.381942,-6.596757     C  21.476363, -6.632578  21.569204, -6.673501  21.660996, -6.717786  21.751923, -6.764820  21.842087, -6.814255  21.931554, -6.865855  22.020370, -6.919450  22.108571, -6.974911  22.196183, -7.032133  22.283226, -7.091030  22.369717, -7.151531  22.455669, -7.213575  22.541091, -7.277108  22.625994, -7.342085  22.710383, -7.408464  22.794264, -7.476209  22.877641, -7.545287  22.960518, -7.615667  23.042898, -7.687323  23.124781, -7.760230  23.206170, -7.834364  23.287065, -7.909705  23.367466, -7.986232  23.447372, -8.063928  23.526785, -8.142775  23.605702, -8.222757  23.684122, -8.303859  23.762044, -8.386066  23.839465, -8.469365  23.916385, -8.553742  " fill="none" stroke="#000000" stroke-width="1" />
<path d="M23.496909,-9.646516 A 25.400000 25.400000  0 0 1 23.916385 -8.553742" fill="none" stroke="#000000" stroke-width="1" />
<path d="M 21.815683,-4.978012     C  21.915365, -4.994200  22.016229, -5.005181  22.117866, -5.012725  22.220128, -5.017455  22.322929, -5.019726  22.426210, -5.019772  22.529925, -5.017765  22.634040, -5.013836  22.738525, -5.008086  22.843355, -5.000601  22.948509, -4.991451  23.053967, -4.980696  23.159712, -4.968385  23.265728, -4.954565  23.372001, -4.939273  23.478516, -4.922545  23.585262, -4.904411  23.692226, -4.884898  23.799396, -4.864032  23.906763, -4.841834  24.014315, -4.818327  24.122042, -4.793527  24.229935, -4.767453  24.337984, -4.740120  24.446181, -4.711542  24.554516, -4.681734  24.662980, -4.650708  24.771566, -4.618476  24.880265, -4.585048  24.989069, -4.550434  " fill="none" stroke="#000000" stroke-width="1" />
<path d="M 22.286238,-2.007046     C  22.386043, -2.022453  22.485364, -2.043179  22.584358, -2.067412  22.683077, -2.094514  22.781548, -2.124122  22.879788, -2.155993  22.977807, -2.189951  23.075612, -2.225862  23.173206, -2.263618  23.270592, -2.303131  23.367772, -2.344327  23.464745, -2.387145  23.561510, -2.431529  23.658067, -2.477434  23.754413, -2.524817  23.850546, -2.573642  23.946463, -2.623875  24.042162, -2.675486  24.137639, -2.728449  24.232892, -2.782738  24.327915, -2.838331  24.422706, -2.895206  24.517261, -2.953345  24.611576, -3.012729  24.705646, -3.073342  24.799468, -3.135169  24.893036, -3.198194  24.986347, -3.262403  25.079396, -3.327785  25.172178, -3.394327  " fill="none" stroke="#000000" stroke-width="1" />
<path d="M24.989069,-4.550434 A 25.400000 25.400000  0 0 1 25.172178 -3.394327" fill="none" stroke="#000000" stroke-width="1" />
<path d="M21.954358,4.325598 A 22.376431 22.376431  0 0 1 22.216519 2.670382" fill="none" stroke="#000000" stroke-width="1" />
<path d="M20.575260,8.795641 A 22.376431 22.376431  0 0 1 21.175831 7.231101" fill="none" stroke="#000000" stroke-width="1" />
<path d="M18.296925,12.881272 A 22.376431 22.376431  0 0 1 19.209658 11.475787" fill="none" stroke="#000000" stroke-width="1" />
<path d="M15.218926,16.403930 A 22.376431 22.376431  0 0 1 16.403930 15.218926" fill="none" stroke="#000000" stroke-width="1" />
<path d="M11.475787,19.209658 A 22.376431 22.376431  0 0 1 12.881272 18.296925" fill="none" stroke="#000000" stroke-width="1" />
<path d="M7.231101,21.175831 A 22.376431 22.376431  0 0 1 8.795641 20.575260" fill="none" stroke="#000000" stroke-width="1" />
<path d="M2.670382,22.216519 A 22.376431 22.376431  0 0 1 4.325598 21.954358" fill="none" stroke="#000000" stroke-width="1" />
<path d="M-2.007046,22.286238 A 22.376431 22.376431  0 0 1 -0.333495 22.373945" fill="none" stroke="#000000" stroke-width="1" />
<path d="M-6.596757,21.381942 A 22.376431 22.376431  0 0 1 -4.978012 21.815683" fill="none" stroke="#000000" stroke-width="1" />
<path d="M-10.898158,19.543152 A 22.376431 22.376431  0 0 1 -9.404966 20.303972" fill="none" stroke="#000000" stroke-width="1" />
<path d="M-14.723257,16.850233 A 22.376431 22.376431  0 0 1 -13.420878 17.904879" fill="none" stroke="#000000" stroke-width="1" />
<path d="M-17.904879,13.420878 A 22.376431 22.376431  0 0 1 -16.850233 14.723257" fill="none" stroke="#000000" stroke-width="1" />
<path d="M-20.303972,9.404966 A 22.376431 22.376431  0 0 1 -19.543152 10.898158" fill="none" stroke="#000000" stroke-width="1" />
<path d="M-21.815683,4.978012 A 22.376431 22.376431  0 0 1 -21.381942 6.596757" fill="none" stroke="#000000" stroke-width="1" />
<path d="M-22.373945,0.333495 A 22.376431 22.376431  0 0 1 -22.286238 2.007046" fill="none" stroke="#000000" stroke-width="1" />
<path d="M-21.954358,-4.325598 A 22.376431 22.376431  0 0 1 -22.216519 -2.670382" fill="none" stroke="#000000" stroke-width="1" />
<path d="M-20.575260,-8.795641 A 22.376431 22.376431  0 0 1 -21.175831 -7.231101" fill="none" stroke="#000000" stroke-width="1" />
<path d="M-18.296925,-12.881272 A 22.376431 22.376431  0 0 1 -19.209658 -11.475787" fill="none" stroke="#000000" stroke-width="1" />
<path d="M-15.218926,-16.403930 A 22.376431 22.376431  0 0 1 -16.403930 -15.218926" fill="none" stroke="#000000" stroke-width="1" />
<path d="M-11.475787,-19.209658 A 22.376431 22.376431  0 0 1 -12.881272 -18.296925" fill="none" stroke="#000000" stroke-width="1" />
<path d="M-7.231101,-21.175831 A 22.376431 22.376431  0 0 1 -8.795641 -20.575260" fill="none" stroke="#000000" stroke-width="1" />
<path d="M-2.670382,-22.216519 A 22.376431 22.376431  0 0 1 -4.325598 -21.954358" fill="none" stroke="#000000" stroke-width="1" />
<path d="M2.007046,-22.286238 A 22.376431 22.376431  0 0 1 0.333495 -22.373945" fill="none" stroke="#000000" stroke-width="1" />
<path d="M6.596757,-21.381942 A 22.376431 22.376431  0 0 1 4.978012 -21.815683" fill="none" stroke="#000000" stroke-width="1" />
<path d="M10.898158,-19.543152 A 22.376431 22.376431  0 0 1 9.404966 -20.303972" fill="none" stroke="#000000" stroke-width="1" />
<path d="M14.723257,-16.850233 A 22.376431 22.376431  0 0 1 13.420878 -17.904879" fill="none" stroke="#000000" stroke-width="1" />
<path d="M17.904879,-13.420878 A 22.376431 22.376431  0 0 1 16.850233 -14.723257" fill="none" stroke="#000000" stroke-width="1" />
<path d="M20.303972,-9.404966 A 22.376431 22.376431  0 0 1 19.543152 -10.898158" fill="none" stroke="#000000" stroke-width="1" />
<path d="M21.815683,-4.978012 A 22.376431 22.376431  0 0 1 21.381942 -6.596757" fill="none" stroke="#000000" stroke-width="1" />
<path d="M22.373945,-0.333495 A 22.376431 22.376431  0 0 1 22.286238 -2.007046" fill="none" stroke="#000000" stroke-width="1" />
</svg>
